        <svg
          width="470"
          height="100"
          viewBox="0 0 470 100"
          fill="none"
          xmlns="http://www.w3.org/2000/svg"
        >
          <g opacity="0.15" clip-path="url(#clip0_2170_12581)">
            <path
              d="M178.224 79.1126V23.8684H212.982V34.6002H189.629V45.8055H210.898V56.0639H189.629V68.374H213.056V79.1058H178.224V79.1126Z"
              fill="black"
            />
            <path
              d="M368.501 60.3116C368.501 76.7456 347.225 98.4494 347.225 98.4494C347.225 98.4494 325.949 76.6975 325.949 60.3116C325.949 46.4988 335.471 37.2903 347.225 37.2903C358.978 37.2903 368.501 46.7664 368.501 60.3116V60.3116ZM338.755 55.5907C338.755 54.4036 337.816 53.4429 336.657 53.4429C335.498 53.4429 334.56 54.4036 334.56 55.5907V66.0274C334.56 67.2145 335.498 68.1752 336.657 68.1752C337.816 68.1752 338.755 67.2145 338.755 66.0274V55.5907ZM345.797 49.319C345.797 48.1319 344.859 47.1713 343.7 47.1713C342.541 47.1713 341.603 48.1319 341.603 49.319V71.7502C341.603 72.9373 342.541 73.8979 343.7 73.8979C344.859 73.8979 345.797 72.9373 345.797 71.7502V49.3121V49.319ZM352.84 49.319C352.84 48.1319 351.902 47.1713 350.743 47.1713C349.584 47.1713 348.645 48.1319 348.645 49.319V75.6065C348.645 76.7936 349.584 77.7542 350.743 77.7542C351.902 77.7542 352.84 76.7936 352.84 75.6065V49.3121V49.319ZM359.883 55.5907C359.883 54.4036 358.945 53.4429 357.786 53.4429C356.626 53.4429 355.688 54.4036 355.688 55.5907V69.8838C355.688 71.0709 356.626 72.0315 357.786 72.0315C358.945 72.0315 359.883 71.0709 359.883 69.8838V55.5907Z"
              fill="black"
            />
            <path
              d="M217.988 79.1129L232.321 57.9648L218.296 37.2903H231.243L238.949 49.916H239.103L246.735 37.2903H259.762L245.657 57.9648L260.071 79.1129H247.044L239.103 66.0137H238.949L230.934 79.1129H217.988V79.1129Z"
              fill="black"
            />
            <path
              d="M263.917 96.8641V37.2833H274.478V40.2064H274.632C277.252 37.5989 281.032 36.103 285.501 36.103C296.136 36.103 303.768 45.4145 303.768 58.198C303.768 70.9815 296.136 80.2929 285.582 80.2929C281.266 80.2929 277.259 78.7147 275.101 76.1896H274.947V96.8641H263.924H263.917ZM292.738 58.198C292.738 50.698 289.421 46.4369 283.41 46.4369C278.478 46.4369 274.934 50.0668 274.934 55.1994V61.1966C274.934 66.2469 278.478 70.0346 283.41 70.0346C289.348 70.0346 292.738 65.691 292.738 58.198V58.198Z"
              fill="black"
            />
            <path
              d="M309.364 79.1128V21.5012H320.387V79.1128H309.364Z"
              fill="black"
            />
            <path
              d="M374.693 80.2931V38.4705H385.019V42.1827H385.173C386.949 39.4174 389.951 37.6814 393.958 37.6814C395.962 37.6814 397.657 37.9147 399.279 38.395L397.429 49.1269C395.654 48.6534 394.347 48.4956 392.879 48.4956C388.175 48.4956 385.709 51.7343 385.709 57.807V80.2999H374.686L374.693 80.2931Z"
              fill="black"
            />
            <path
              d="M400.968 58.198C400.968 45.1743 408.908 36.103 420.233 36.103C431.558 36.103 439.425 45.0233 439.425 58.198V61.5122H412.065C412.373 67.4339 415.455 70.8237 420.468 70.8237C424.475 70.8237 427.484 68.8475 430.332 64.5863L438.118 70.8237C434.185 77.1365 428.174 80.2929 420.468 80.2929C408.908 80.2929 400.968 71.4549 400.968 58.198V58.198ZM428.71 53.5388C428.321 48.4885 425.319 45.5654 420.307 45.5654C415.757 45.5654 412.447 48.7218 412.058 53.5388H428.703H428.71Z"
              fill="black"
            />
            <path
              d="M445.014 80.2931V38.4705H455.34V42.1827H455.494C457.27 39.4174 460.272 37.6814 464.279 37.6814C466.283 37.6814 467.978 37.9147 469.6 38.395L467.751 49.1269C465.975 48.6534 464.668 48.4956 463.2 48.4956C458.496 48.4956 456.03 51.7343 456.03 57.807V80.2999H445.007L445.014 80.2931Z"
              fill="black"
            />
            <path
              d="M33.0915 55.2269V51.0824C33.0915 50.6226 33.4533 50.2521 33.9023 50.2521H50.5009C50.9432 50.2521 51.3117 50.6226 51.3117 51.0824V55.2269C51.3117 55.6866 50.9499 56.0572 50.5009 56.0572H45.4416C45.2003 56.0572 45.0395 56.2219 45.0395 56.4689V78.4335C45.0395 78.8863 44.6776 79.2637 44.2287 79.2637H40.1812C39.7323 79.2637 39.3704 78.8932 39.3704 78.4335V56.4689C39.3704 56.2219 39.2096 56.0572 38.9683 56.0572H33.909C33.46 56.0572 33.0982 55.6866 33.0982 55.2269H33.0915ZM140.369 11.9084V76.1622C140.369 77.8776 139.009 79.2706 137.334 79.2706H77.6202V96.8917C77.6202 98.6071 76.2599 100 74.5846 100H11.8356C10.1604 100 8.80005 98.6071 8.80005 96.8917V32.6379C8.80005 30.9224 10.1604 29.5295 11.8356 29.5295H71.549V11.9084C71.549 10.193 72.9093 8.80005 74.5846 8.80005H137.334C139.009 8.80005 140.369 10.193 140.369 11.9084ZM71.549 35.7463H15.3805C15.0991 35.7463 14.8712 35.9796 14.8712 36.2678V93.2618C14.8712 93.55 15.0991 93.7833 15.3805 93.7833H71.0397C71.3212 93.7833 71.549 93.55 71.549 93.2618V35.7463ZM113.853 53.7722C113.853 53.3193 113.491 52.9419 113.042 52.9419H109.604C109.363 52.9419 109.202 52.7772 109.202 52.5302V35.5336C109.202 35.2865 109.363 35.1219 109.604 35.1219H112.64C113.082 35.1219 113.451 34.7513 113.451 34.2916V30.3529C113.451 29.8932 113.089 29.5226 112.64 29.5226H100.096C99.6466 29.5226 99.2848 29.8932 99.2848 30.3529V34.2916C99.2848 34.7513 99.6466 35.1219 100.096 35.1219H103.131C103.372 35.1219 103.533 35.2865 103.533 35.5336V52.5302C103.533 52.7772 103.372 52.9419 103.131 52.9419H99.6935C99.2513 52.9419 98.8827 53.3125 98.8827 53.7722V57.7109C98.8827 58.1637 99.2446 58.5411 99.6935 58.5411H113.049C113.498 58.5411 113.86 58.1706 113.86 57.7109V53.7722H113.853Z"
              fill="black"
            />
          </g>
          <g clip-path="url(#clip1_2170_12581)">
            <path
              d="M173.423 74.3126V19.0684H208.182V29.8002H184.829V41.0055H206.098V51.2639H184.829V63.5739H208.256V74.3057H173.423V74.3126Z"
              fill="#F1F2F3"
            />
            <path
              d="M363.701 55.5115C363.701 71.9455 342.425 93.6493 342.425 93.6493C342.425 93.6493 321.149 71.8975 321.149 55.5115C321.149 41.6988 330.671 32.4902 342.425 32.4902C354.178 32.4902 363.701 41.9664 363.701 55.5115V55.5115ZM333.955 50.7906C333.955 49.6035 333.016 48.6429 331.857 48.6429C330.698 48.6429 329.76 49.6035 329.76 50.7906V61.2274C329.76 62.4145 330.698 63.3751 331.857 63.3751C333.016 63.3751 333.955 62.4145 333.955 61.2274V50.7906ZM340.997 44.5189C340.997 43.3319 340.059 42.3712 338.9 42.3712C337.741 42.3712 336.803 43.3319 336.803 44.5189V66.9501C336.803 68.1372 337.741 69.0979 338.9 69.0979C340.059 69.0979 340.997 68.1372 340.997 66.9501V44.5121V44.5189ZM348.04 44.5189C348.04 43.3319 347.102 42.3712 345.943 42.3712C344.784 42.3712 343.845 43.3319 343.845 44.5189V70.8064C343.845 71.9935 344.784 72.9542 345.943 72.9542C347.102 72.9542 348.04 71.9935 348.04 70.8064V44.5121V44.5189ZM355.083 50.7906C355.083 49.6035 354.145 48.6429 352.986 48.6429C351.826 48.6429 350.888 49.6035 350.888 50.7906V65.0837C350.888 66.2708 351.826 67.2315 352.986 67.2315C354.145 67.2315 355.083 66.2708 355.083 65.0837V50.7906Z"
              fill="#F1F2F3"
            />
            <path
              d="M213.188 74.3128L227.521 53.1648L213.496 32.4902H226.442L234.149 45.1159H234.303L241.935 32.4902H254.962L240.857 53.1648L255.271 74.3128H242.244L234.303 61.2137H234.149L226.134 74.3128H213.188V74.3128Z"
              fill="#F1F2F3"
            />
            <path
              d="M259.117 92.0641V32.4832H269.678V35.4063H269.832C272.452 32.7988 276.232 31.303 280.701 31.303C291.336 31.303 298.968 40.6144 298.968 53.3979C298.968 66.1814 291.336 75.4929 280.782 75.4929C276.466 75.4929 272.459 73.9147 270.301 71.3895H270.147V92.0641H259.124H259.117ZM287.938 53.3979C287.938 45.898 284.621 41.6368 278.61 41.6368C273.678 41.6368 270.134 45.2667 270.134 50.3993V56.3965C270.134 61.4468 273.678 65.2345 278.61 65.2345C284.548 65.2345 287.938 60.891 287.938 53.3979V53.3979Z"
              fill="#F1F2F3"
            />
            <path
              d="M304.564 74.3127V16.7012H315.587V74.3127H304.564Z"
              fill="#F1F2F3"
            />
            <path
              d="M369.893 75.493V33.6705H380.219V37.3827H380.373C382.149 34.6174 385.151 32.8813 389.158 32.8813C391.162 32.8813 392.857 33.1146 394.479 33.595L392.629 44.3268C390.854 43.8533 389.547 43.6955 388.079 43.6955C383.375 43.6955 380.909 46.9343 380.909 53.007V75.4999H369.886L369.893 75.493Z"
              fill="#F1F2F3"
            />
            <path
              d="M396.167 53.3979C396.167 40.3743 404.108 31.303 415.433 31.303C426.758 31.303 434.625 40.2233 434.625 53.3979V56.7122H407.264C407.573 62.6339 410.655 66.0236 415.668 66.0236C419.675 66.0236 422.684 64.0474 425.532 59.7863L433.318 66.0236C429.385 72.3365 423.374 75.4929 415.668 75.4929C404.108 75.4929 396.167 66.6549 396.167 53.3979V53.3979ZM423.91 48.7388C423.521 43.6885 420.519 40.7654 415.507 40.7654C410.957 40.7654 407.646 43.9218 407.258 48.7388H423.903H423.91Z"
              fill="#F1F2F3"
            />
            <path
              d="M440.214 75.493V33.6705H450.54V37.3827H450.694C452.47 34.6174 455.472 32.8813 459.479 32.8813C461.483 32.8813 463.178 33.1146 464.8 33.595L462.951 44.3268C461.175 43.8533 459.868 43.6955 458.4 43.6955C453.696 43.6955 451.23 46.9343 451.23 53.007V75.4999H440.207L440.214 75.493Z"
              fill="#F1F2F3"
            />
            <path
              d="M28.2914 50.4268V46.2823C28.2914 45.8226 28.6533 45.452 29.1023 45.452H45.7008C46.1431 45.452 46.5117 45.8226 46.5117 46.2823V50.4268C46.5117 50.8866 46.1498 51.2571 45.7008 51.2571H40.6415C40.4003 51.2571 40.2395 51.4218 40.2395 51.6688V73.6334C40.2395 74.0863 39.8776 74.4637 39.4286 74.4637H35.3812C34.9322 74.4637 34.5703 74.0931 34.5703 73.6334V51.6688C34.5703 51.4218 34.4095 51.2571 34.1683 51.2571H29.109C28.66 51.2571 28.2981 50.8866 28.2981 50.4268H28.2914ZM135.569 7.10839V71.3621C135.569 73.0776 134.209 74.4705 132.533 74.4705H72.8201V92.0916C72.8201 93.8071 71.4598 95.2 69.7845 95.2H7.03559C5.36032 95.2 4 93.8071 4 92.0916V27.8378C4 26.1224 5.36032 24.7295 7.03559 24.7295H66.7489V7.10839C66.7489 5.39294 68.1093 4 69.7845 4H132.533C134.209 4 135.569 5.39294 135.569 7.10839ZM66.7489 30.9462H10.5805C10.299 30.9462 10.0712 31.1795 10.0712 31.4677V88.4617C10.0712 88.7499 10.299 88.9832 10.5805 88.9832H66.2397C66.5211 88.9832 66.7489 88.7499 66.7489 88.4617V30.9462ZM109.053 48.9721C109.053 48.5193 108.691 48.1419 108.242 48.1419H104.804C104.563 48.1419 104.402 47.9772 104.402 47.7302V30.7335C104.402 30.4865 104.563 30.3218 104.804 30.3218H107.84C108.282 30.3218 108.651 29.9513 108.651 29.4915V25.5529C108.651 25.0931 108.289 24.7226 107.84 24.7226H95.2956C94.8466 24.7226 94.4847 25.0931 94.4847 25.5529V29.4915C94.4847 29.9513 94.8466 30.3218 95.2956 30.3218H98.3312C98.5724 30.3218 98.7332 30.4865 98.7332 30.7335V47.7302C98.7332 47.9772 98.5724 48.1419 98.3312 48.1419H94.8935C94.4512 48.1419 94.0827 48.5124 94.0827 48.9721V52.9108C94.0827 53.3637 94.4445 53.7411 94.8935 53.7411H108.249C108.698 53.7411 109.06 53.3705 109.06 52.9108V48.9721H109.053Z"
              fill="#F1F2F3"
            />
          </g>
          <defs>
            <clipPath id="clip0_2170_12581">
              <rect
                width="460.8"
                height="91.2"
                fill="white"
                transform="translate(8.80005 8.80005)"
              />
            </clipPath>
            <clipPath id="clip1_2170_12581">
              <rect
                width="460.8"
                height="91.2"
                fill="white"
                transform="translate(4 4)"
              />
            </clipPath>
          </defs>
        </svg>